<?xml version="1.0" encoding="UTF-8" standalone="no"?>
<!-- Created with Inkscape (http://www.inkscape.org/) -->

<svg
   version="1.1"
   id="svg2"
   xml:space="preserve"
   width="164.28352"
   height="188.52309"
   viewBox="0 0 164.28353 188.52309"
   sodipodi:docname="Stan_hex_cut.svg"
   inkscape:version="1.1.2 (0a00cf5339, 2022-02-04)"
   xmlns:inkscape="http://www.inkscape.org/namespaces/inkscape"
   xmlns:sodipodi="http://sodipodi.sourceforge.net/DTD/sodipodi-0.dtd"
   xmlns="http://www.w3.org/2000/svg"
   xmlns:svg="http://www.w3.org/2000/svg"><defs
     id="defs6" /><sodipodi:namedview
     id="namedview4"
     pagecolor="#ffffff"
     bordercolor="#666666"
     borderopacity="1.0"
     inkscape:pageshadow="2"
     inkscape:pageopacity="0.0"
     inkscape:pagecheckerboard="0"
     showgrid="false"
     inkscape:zoom="3.7097013"
     inkscape:cx="82.08208"
     inkscape:cy="94.482"
     inkscape:window-width="1920"
     inkscape:window-height="964"
     inkscape:window-x="0"
     inkscape:window-y="0"
     inkscape:window-maximized="1"
     inkscape:current-layer="g10"
     fit-margin-top="0"
     fit-margin-left="0"
     fit-margin-right="0"
     fit-margin-bottom="0" /><g
     id="g8"
     inkscape:groupmode="layer"
     inkscape:label="Stan_hex"
     transform="matrix(1.3333333,0,0,1.3333333,-9.1842331,-11.136461)"><g
       id="g10"><path
         d="m 80.02,32.895 c -2.809,0.804 -5.641,1.617 -7.946,2.253 -12.883,3.559 -31.355,8.457 -35.527,15.305 0,0 -5.82,12.891 -7.746,17.813 C 31.902,62.914 47.461,59.742 55.191,58 61.836,56.5 86.301,52.051 96.254,50.391 92.469,43.238 86.871,37.203 80.02,32.895 Z m -2.489,49.417 c -3.422,7.704 -27.129,13.813 -40.976,17.43 -4.239,1.106 -9.332,2.528 -14.485,4.059 0.746,0.761 1.512,1.492 2.309,2.199 4.043,-0.836 8.008,-1.621 11.527,-2.297 13.125,-2.527 33.063,-7.273 37.449,-11.551 0,0 3.215,-7.168 4.176,-9.84 z"
         style="fill:#ffffff;fill-opacity:1;fill-rule:nonzero;stroke:none"
         id="path64" /><path
         d="m 8.434,44.375 v 69.348 l 60.062,34.683 60.059,-34.683 V 44.375 L 68.496,9.691 Z"
         style="fill:#b2001d;fill-opacity:1;fill-rule:nonzero;stroke:none"
         id="path66" /><path
         d="m 67.094,26.98 c -28.473,0 -51.551,23.086 -51.551,51.559 0,7.207 -4.453,15.035 -6.859,22.313 0.347,7.558 -0.114,12.914 3.183,14.351 2.266,1.188 6.367,2.922 8.106,4.086 4.754,4.586 6.136,3.793 15.922,8.758 10.8,5.48 24.421,2.043 31.199,2.043 28.472,0 51.558,-23.078 51.558,-51.551 0,-5 5.418,-10.43 9.098,-15.492 0.422,-2.731 2.359,-15.035 1.332,-17.844 C 116.957,37.184 110.758,32.832 98.766,27.5 86.559,26.742 73.074,26.98 67.094,26.98 Z"
         style="fill:#ffffff;fill-opacity:1;fill-rule:nonzero;stroke:none"
         id="path68" /><path
         d="m 69.129,24.91 c -28.836,0 -54.262,24.785 -54.262,53.621 0,7.301 -3.746,14.953 -6.183,22.321 -1.594,5.761 0.527,16.226 4.461,15.41 10.171,-2.426 29.218,-6.387 33.402,-7.481 15.055,-3.929 40.828,-10.578 44.551,-18.953 -1.047,2.91 -4.543,10.703 -4.543,10.703 -4.77,4.653 -27.629,9.606 -40.743,12.125 -14.371,2.762 -17.488,3.188 -28.417,4.906 0.433,3.11 14.574,9.348 18.082,11.11 10.937,5.555 24.734,2.066 31.597,2.066 28.836,0 52.219,-23.371 52.219,-52.207 0.348,-5.047 12.332,-13.914 9.031,-25.023 -14.25,1.258 -54.519,8.297 -61.515,9.89 -8.407,1.895 -25.321,5.344 -28.692,11.161 2.094,-5.352 8.418,-19.364 8.418,-19.364 C 51.074,47.75 71.324,41.191 85.164,38.551 87.43,38.043 100.887,35.883 110.34,34.207 105.141,27.93 92.871,24.879 69.129,24.91 Z"
         style="fill:#b2001d;fill-opacity:1;fill-rule:nonzero;stroke:none"
         id="path70" /><path
         d="m 38.074,74.75 c -0.937,4.383 13.129,8.625 25.813,12.637 12.683,4.015 18.023,6.183 21.133,8.179 5.042,-2.414 6.199,-6.019 6.199,-6.019 C 92.629,83.992 79.984,76.891 71.551,73.773 63.121,70.66 61.234,69.164 55.117,66.156 39.016,70.418 38.074,74.75 38.074,74.75 Z"
         style="fill:#590815;fill-opacity:1;fill-rule:nonzero;stroke:none"
         id="path72" /><g
         id="g74"
         transform="scale(1,-1)"><path
           d="m 8.434,-44.375 v -69.348 l 60.062,-34.683 60.059,34.683 v 69.348 L 68.496,-9.691 Z"
           style="fill:none;stroke:#ffffff;stroke-width:3.09165;stroke-linecap:round;stroke-linejoin:round;stroke-miterlimit:4;stroke-dasharray:none;stroke-opacity:1"
           id="path76" /></g><path
         d="m 78.055,133.312 1.797,3.11 0.625,-0.36 -1.313,-2.265 c 0.078,-0.453 0.234,-0.656 0.547,-0.844 0.312,-0.172 0.687,-0.125 0.984,0.391 l 1.125,1.937 0.61,-0.359 -1.313,-2.266 c 0.094,-0.344 0.266,-0.687 0.485,-0.781 0.343,-0.203 0.781,-0.109 1.046,0.344 l 1.125,1.937 0.61,-0.359 -1.141,-1.969 c -0.422,-0.719 -1.094,-0.984 -1.734,-0.625 -0.438,0.266 -0.61,0.719 -0.703,1.188 -0.438,-0.25 -0.875,-0.266 -1.266,-0.047 -0.281,0.172 -0.484,0.5 -0.625,1.015 l -0.234,-0.406 z"
         style="fill:#ffffff;fill-opacity:1;fill-rule:nonzero;stroke:none"
         id="path78" /><path
         d="m 85.816,129.02 c -0.375,0.046 -0.671,0.093 -1.031,0.296 -0.953,0.547 -1.172,1.547 -0.578,2.579 0.531,0.921 1.578,1.187 2.516,0.656 0.312,-0.188 0.64,-0.516 0.797,-0.735 l -0.344,-0.609 c -0.235,0.328 -0.438,0.547 -0.703,0.703 -0.641,0.375 -1.282,0.219 -1.657,-0.437 -0.359,-0.625 -0.234,-1.266 0.344,-1.594 0.266,-0.156 0.547,-0.234 1.047,-0.188 z"
         style="fill:#ffffff;fill-opacity:1;fill-rule:nonzero;stroke:none"
         id="path80" /><path
         d="m 88.73,128.812 -1.687,0.969 0.375,0.657 1.687,-0.969 z"
         style="fill:#ffffff;fill-opacity:1;fill-rule:nonzero;stroke:none"
         id="path82" /><path
         d="m 90.641,126.301 c -0.438,0.015 -0.782,0.094 -1.079,0.265 -0.624,0.36 -0.828,0.907 -0.515,1.438 0.484,0.844 2.062,0.234 2.312,0.656 0.125,0.235 0,0.469 -0.265,0.641 -0.235,0.14 -0.688,0.203 -1.25,0.156 l 0.39,0.672 c 0.516,-0.031 0.875,-0.125 1.25,-0.344 0.61,-0.344 0.797,-0.969 0.485,-1.515 -0.188,-0.313 -0.5,-0.422 -1.203,-0.469 -0.719,0 -1.032,-0.047 -1.11,-0.188 -0.094,-0.156 -0.015,-0.375 0.25,-0.515 0.203,-0.125 0.61,-0.235 1.078,-0.188 z"
         style="fill:#ffffff;fill-opacity:1;fill-rule:nonzero;stroke:none"
         id="path84" /><path
         d="m 91.73,124.539 -0.5,1.813 0.032,0.062 0.547,-0.312 0.953,1.64 c 0.328,0.563 0.906,0.781 1.593,0.391 0.204,-0.11 0.454,-0.391 0.594,-0.641 l -0.328,-0.562 c -0.141,0.297 -0.328,0.5 -0.547,0.625 -0.187,0.109 -0.515,0.156 -0.734,-0.203 l -0.922,-1.61 1,-0.578 -0.313,-0.547 -1,0.578 z"
         style="fill:#ffffff;fill-opacity:1;fill-rule:nonzero;stroke:none"
         id="path86" /><path
         d="m 97.598,125.418 c -0.078,0.187 -0.188,0.328 -0.235,0.359 -0.078,0.047 -0.14,0.032 -0.218,-0.093 l -0.922,-1.594 c -0.407,-0.703 -1.094,-0.75 -1.735,-0.375 -0.437,0.25 -0.703,0.594 -0.765,1.015 l 0.39,0.688 c 0.094,-0.531 0.344,-0.891 0.688,-1.094 0.375,-0.219 0.64,-0.156 0.859,0.235 l 0.094,0.171 -0.422,0.5 c -0.391,0.469 -0.859,0.985 -0.5,1.594 0.234,0.406 0.766,0.594 1.234,0.328 0.282,-0.172 0.485,-0.437 0.625,-0.797 0.188,0.172 0.407,0.188 0.688,0.032 0.187,-0.11 0.281,-0.219 0.437,-0.578 z m -1.125,0.547 c -0.063,0.265 -0.172,0.453 -0.375,0.578 -0.266,0.141 -0.547,0.062 -0.688,-0.188 -0.219,-0.359 0.125,-0.812 0.547,-1.296 z"
         style="fill:#ffffff;fill-opacity:1;fill-rule:nonzero;stroke:none"
         id="path88" /><path
         d="m 97.285,122.207 -0.625,0.359 1.797,3.11 0.625,-0.36 -1.297,-2.234 c 0.094,-0.484 0.235,-0.734 0.5,-0.891 0.375,-0.218 0.813,-0.046 1.063,0.391 l 1.125,1.938 0.609,-0.36 -1.109,-1.922 c -0.5,-0.859 -1.203,-0.984 -1.797,-0.656 -0.344,0.203 -0.594,0.594 -0.641,1.031 H 97.52 Z"
         style="fill:#ffffff;fill-opacity:1;fill-rule:nonzero;stroke:none"
         id="path90" /><path
         d="m 101.805,122.719 c -0.219,0.125 -0.297,0.422 -0.157,0.64 0.125,0.235 0.438,0.313 0.657,0.188 0.234,-0.141 0.297,-0.438 0.172,-0.672 -0.141,-0.219 -0.438,-0.297 -0.672,-0.156 z"
         style="fill:#ffffff;fill-opacity:1;fill-rule:nonzero;stroke:none"
         id="path92" /><path
         d="m 103.07,118.762 c -0.937,0.531 -1.234,1.656 -0.718,2.562 0.546,0.938 1.656,1.235 2.609,0.688 1,-0.578 1.281,-1.657 0.719,-2.625 -0.532,-0.938 -1.625,-1.188 -2.61,-0.625 z m 0.328,0.562 c 0.61,-0.359 1.313,-0.172 1.657,0.438 0.39,0.672 0.234,1.328 -0.422,1.703 -0.61,0.344 -1.281,0.125 -1.656,-0.516 -0.344,-0.609 -0.172,-1.281 0.421,-1.625 z"
         style="fill:#ffffff;fill-opacity:1;fill-rule:nonzero;stroke:none"
         id="path94" /><path
         d="m 105.535,117.438 1.797,3.109 0.625,-0.359 -0.953,-1.641 c -0.297,-0.531 -0.203,-1.125 0.219,-1.375 0.14,-0.078 0.468,-0.11 0.75,-0.031 l 0.031,-0.719 c -0.406,-0.11 -0.719,-0.094 -0.969,0.047 -0.297,0.172 -0.453,0.578 -0.453,1.328 h -0.016 l -0.406,-0.719 z"
         style="fill:#ffffff;fill-opacity:1;fill-rule:nonzero;stroke:none"
         id="path96" /><path
         d="m 110.738,114.441 -1.281,0.735 c -0.844,0.484 -1.125,1.187 -0.75,1.844 0.141,0.234 0.313,0.39 0.516,0.484 0.203,0.125 0.453,0.156 0.734,0.109 v 0.016 c -0.25,0.25 -0.344,0.516 -0.234,0.719 0.093,0.156 0.25,0.218 0.547,0.234 -0.454,0.438 -0.547,0.844 -0.282,1.313 0.328,0.546 1.141,0.593 1.985,0.109 0.922,-0.531 1.25,-1.234 0.906,-1.844 -0.234,-0.406 -0.672,-0.609 -1.422,-0.328 -0.703,0.219 -1.062,0.313 -1.172,0.141 -0.203,-0.375 0.766,-0.657 0.906,-1.344 0.079,-0.219 0.047,-0.609 -0.109,-0.875 -0.141,-0.25 -0.328,-0.375 -0.719,-0.484 l 0.641,-0.36 z m -0.234,1.579 c 0.187,0.343 0.062,0.718 -0.266,0.921 -0.39,0.219 -0.75,0.141 -0.953,-0.203 -0.172,-0.312 -0.062,-0.718 0.281,-0.922 0.313,-0.187 0.766,-0.093 0.938,0.204 z m 1.797,2.531 c 0.172,0.281 -0.063,0.64 -0.594,0.953 -0.562,0.328 -0.969,0.328 -1.156,0.016 -0.156,-0.266 0.031,-0.641 0.437,-0.875 0.391,-0.219 1.094,-0.5 1.313,-0.094 z"
         style="fill:#ffffff;fill-opacity:1;fill-rule:nonzero;stroke:none"
         id="path98" /></g></g></svg>
